<?xml version="1.0" encoding="UTF-8"?>
<svg version="1.1" xmlns="http://www.w3.org/2000/svg" width="406" height="403">
<path d="M0 0 C133.98 0 267.96 0 406 0 C406 132.99 406 265.98 406 403 C272.02 403 138.04 403 0 403 C0 270.01 0 137.02 0 0 Z " fill="#F4F4F4" transform="translate(0,0)"/>
<path d="M0 0 C133.98 0 267.96 0 406 0 C406 132.99 406 265.98 406 403 C272.02 403 138.04 403 0 403 C0 270.01 0 137.02 0 0 Z M31 28 C30.6438168 30.06491163 30.6438168 30.06491163 30.61982536 32.48488045 C30.58624172 33.43461176 30.55265808 34.38434307 30.51805675 35.36285412 C30.49114069 36.41375222 30.46422462 37.46465031 30.43649292 38.5473938 C30.40091691 39.65863015 30.3653409 40.7698665 30.32868683 41.91477668 C30.21234357 45.6657687 30.11133756 49.41699869 30.01123047 53.16845703 C29.95311482 55.16658565 29.89499296 57.16471413 29.83636378 59.16282775 C29.09838628 84.50340847 28.68378127 109.85094556 28.34875298 135.19967842 C28.30415089 138.51415315 28.25865672 141.82861433 28.21240234 145.14306641 C28.20094245 145.96671664 28.18948255 146.79036687 28.17767538 147.6389762 C27.98850081 160.86841692 27.62357278 174.0870695 27.18839477 187.31045105 C26.74330229 200.95175166 26.4891028 214.58754723 26.40241158 228.23586547 C26.34881279 235.87715095 26.21578519 243.49736713 25.86382675 251.1312294 C24.53915877 280.81897473 25.60852808 306.45728682 46.45209599 329.40371704 C61.49698584 345.38847268 79.02608171 360.59774052 101.91642797 361.54807997 C106.93383164 361.60481939 111.89073368 361.277167 116.88882518 360.87124872 C121.35276744 360.5663716 125.81961912 360.55853165 130.29237366 360.51364136 C138.6879432 360.3887998 147.05318953 360.02691788 155.43616539 359.56304538 C166.85391036 358.94292165 178.27947582 358.67176839 189.70974457 358.39223266 C192.47331734 358.32461003 195.23685779 358.25584776 198.00038147 358.18624878 C198.89618646 358.1639287 199.79199144 358.14160862 200.71494204 358.11861217 C205.98984847 357.97937858 211.25803087 357.77988369 216.52843368 357.52160001 C219.78630915 357.36343682 223.04494045 357.2273544 226.30387497 357.09303474 C227.80521985 357.0246665 229.30610826 356.94516967 230.80620384 356.85338783 C240.01846983 356.29202292 245.76291351 356.94810134 253 363 C271.97117829 373.47817488 295.44269811 374.60242953 316 369 C329.96932797 364.72169074 341.68608116 357.28032301 352 347 C352.83273437 346.19046875 353.66546875 345.3809375 354.5234375 344.546875 C369.26023242 329.40198422 377.54032099 308.99799673 377.5 287.8125 C377.32737129 281.08410691 376.72621187 274.52233463 375 268 C374.5978125 266.45119141 374.5978125 266.45119141 374.1875 264.87109375 C370.87674161 253.18687561 365.89946598 243.22442949 358 234 C357.38253906 233.24976563 356.76507813 232.49953125 356.12890625 231.7265625 C349.34344186 223.72599482 341.60146655 217.73830633 332.5625 212.5 C331.65733643 211.97394165 331.65733643 211.97394165 330.73388672 211.43725586 C327.934974 209.87032293 326.26099533 209 323 209 C321.5586116 193.95717784 320.64008035 178.91795117 320.1875 163.8125 C320.15400829 162.70445007 320.12051659 161.59640015 320.08600998 160.45477295 C319.39595511 133.41798804 320.11507608 110.67720302 339.38954163 90.26777649 C348.34333467 81.20138497 358.4505921 72.85102611 368.94564819 65.62333679 C374.50533679 62.01756497 374.50533679 62.01756497 377.74446106 56.55421448 C377.8763371 48.61938072 374.00259556 41.51732622 368.94921875 35.59765625 C362.82539028 29.75663336 354.99511187 25.15015802 346.26782227 25.32226562 C340.90702637 26.92432929 337.19635493 32.0242694 333.5 36 C332.57480976 36.96535956 331.64774129 37.92892275 330.71875 38.890625 C328.46007311 41.24341342 326.22215342 43.61277232 324 46 C323.95101563 44.72382812 323.90203125 43.44765625 323.8515625 42.1328125 C323.77653809 40.46351928 323.70099012 38.79424954 323.625 37.125 C323.57859375 35.86236328 323.57859375 35.86236328 323.53125 34.57421875 C323.49257813 33.76855469 323.45390625 32.96289062 323.4140625 32.1328125 C323.36693115 31.01737061 323.36693115 31.01737061 323.31884766 29.87939453 C323.14580449 27.75989026 323.14580449 27.75989026 321 26 C318.82073175 25.69698745 318.82073175 25.69698745 316.26168823 25.74831772 C315.25572161 25.74310222 314.24975498 25.73788673 313.21330452 25.73251319 C312.09990133 25.73697463 310.98649815 25.74143608 309.83935547 25.74603271 C308.66299467 25.74291273 307.48663387 25.73979275 306.27462578 25.73657823 C302.99930226 25.72995897 299.72412577 25.73237135 296.44880581 25.73855066 C292.92047256 25.74305982 289.3921598 25.73609906 285.86383057 25.73059082 C278.94784638 25.72167867 272.0319055 25.72362691 265.11591959 25.7294161 C259.49717763 25.73392545 253.87844784 25.73454866 248.25970459 25.73236847 C247.46124898 25.732062 246.66279337 25.73175554 245.84014213 25.73143978 C244.21830066 25.73080036 242.59645919 25.73015193 240.97461772 25.7294946 C225.75211426 25.72378597 210.52963486 25.73035754 195.30713534 25.74109533 C182.23404172 25.75003133 169.16098361 25.74847944 156.08789062 25.73925781 C140.9213636 25.72856457 125.75485768 25.72433534 110.58832741 25.73048234 C108.97231675 25.73111947 107.35630608 25.73174821 105.74029541 25.73236847 C104.94510305 25.73267702 104.1499107 25.73298557 103.3306216 25.73330347 C97.71599439 25.73503326 92.10138052 25.73210922 86.48675537 25.72740936 C79.64817867 25.72181102 72.8096479 25.72329483 65.97107649 25.73397085 C62.47922963 25.73924174 58.98745946 25.74126036 55.4956131 25.73467255 C51.71721245 25.72924963 47.93903102 25.73601156 44.16064453 25.74603271 C43.04724134 25.74157127 41.93383816 25.73710983 40.78669548 25.73251319 C39.78072886 25.73772868 38.77476223 25.74294418 37.73831177 25.74831772 C36.86527971 25.74864242 35.99224766 25.74896713 35.09276009 25.74930167 C32.78033941 25.80767267 32.78033941 25.80767267 31 28 Z " fill="#F6F6F6" transform="translate(0,0)"/>
<path d="M0 0 C1.00596663 -0.00521549 2.01193325 -0.01043099 3.04838371 -0.01580453 C4.1617869 -0.01134309 5.27519009 -0.00688164 6.42233276 -0.002285 C7.59869356 -0.00540498 8.77505436 -0.00852497 9.98706245 -0.01173949 C13.26238597 -0.01835875 16.53756246 -0.01594637 19.81288242 -0.00976706 C23.34121567 -0.0052579 26.86952843 -0.01221865 30.39785767 -0.0177269 C37.31384185 -0.02663904 44.22978273 -0.02469081 51.14576864 -0.01890162 C56.7645106 -0.01439227 62.38324039 -0.01376906 68.00198364 -0.01594925 C68.80043925 -0.01625572 69.59889487 -0.01656218 70.4215461 -0.01687793 C72.04338758 -0.01751736 73.66522905 -0.01816578 75.28707051 -0.01882312 C90.50957397 -0.02453175 105.73205338 -0.01796018 120.95455289 -0.00722238 C134.02764651 0.00171361 147.10070462 0.00016172 160.17379761 -0.00905991 C175.34032463 -0.01975315 190.50683056 -0.02398237 205.67336082 -0.01783538 C207.28937149 -0.01719825 208.90538215 -0.01656951 210.52139282 -0.01594925 C211.71418136 -0.01548642 211.71418136 -0.01548642 212.93106663 -0.01501425 C218.54569384 -0.01328446 224.16030772 -0.0162085 229.77493286 -0.02090836 C236.61350956 -0.0265067 243.45204033 -0.02502289 250.29061174 -0.01434687 C253.78245861 -0.00907598 257.27422877 -0.00705736 260.76607513 -0.01364517 C264.54447578 -0.01906809 268.32265722 -0.01230616 272.1010437 -0.002285 C273.21444689 -0.00674645 274.32785007 -0.01120789 275.47499275 -0.01580453 C276.48095938 -0.01058903 277.486926 -0.00537354 278.52337646 0 C279.39640852 0.0003247 280.26944057 0.00064941 281.16892815 0.00098395 C283.26168823 0.25168228 283.26168823 0.25168228 285.26168823 2.25168228 C285.58053589 4.13107681 285.58053589 4.13107681 285.67575073 6.38449478 C285.71442261 7.19015884 285.75309448 7.99582291 285.79293823 8.82590103 C285.83934448 10.08853775 285.83934448 10.08853775 285.88668823 11.37668228 C285.92536011 12.22617447 285.96403198 13.07566666 286.00387573 13.95090103 C286.09825317 16.05079912 286.18106409 18.15121119 286.26168823 20.25168228 C286.82565308 19.64582291 287.38961792 19.03996353 287.97067261 18.41574478 C290.08641216 16.16311462 292.2200447 13.92947523 294.36715698 11.70676041 C295.74229706 10.27191537 297.09594922 8.81657599 298.44918823 7.36105728 C305.96550189 -0.37632442 305.96550189 -0.37632442 310.57418823 -0.50222397 C319.34774999 1.2915233 327.44990053 5.30032836 333.26168823 12.25168228 C337.01675333 18.01695354 340.12681647 23.79167746 340.00738525 30.80713272 C338.48645294 35.79306442 333.59473308 38.23087719 329.47764206 41.06621742 C310.80357021 54.19890868 288.5592385 71.5428052 284.12348461 95.09456444 C281.99665951 109.33314376 282.0152088 123.70627316 282.44918823 138.06418228 C282.48259937 139.17932205 282.51601051 140.29446182 282.55043411 141.44339371 C283.01060891 155.4178469 283.92815397 169.33446277 285.26168823 183.25168228 C285.85087036 183.38276382 286.44005249 183.51384537 287.04708862 183.64889908 C304.91039424 188.51104235 319.86231192 204.85730366 328.96871948 220.11105728 C339.9795821 240.73900243 342.46790702 263.82849527 336.01583862 286.24802017 C331.31567164 301.21103418 323.38355203 312.38009953 312.26168823 323.25168228 C311.17114136 324.37316666 311.17114136 324.37316666 310.05856323 325.51730728 C294.93218836 340.18180811 273.7609106 346.52991616 253.09225464 346.49826431 C240.49292109 346.30194599 223.49123639 344.13351125 213.48323917 335.7644825 C206.43954379 329.99685533 199.43657028 330.71540895 190.85519409 331.24045181 C189.30630299 331.31098522 187.75724983 331.37803232 186.20806885 331.44188309 C182.87795607 331.58158705 179.54896567 331.73609406 176.21992302 331.89923859 C170.90208231 332.14973365 165.58400989 332.30532839 160.2620697 332.43793106 C159.35771319 332.46070716 158.45335667 332.48348326 157.52159542 332.50694954 C154.73510888 332.57629907 151.94859505 332.64447345 149.16207886 332.71261978 C137.72664863 332.99477277 126.30602259 333.3383941 114.88400269 333.97043228 C106.52297388 334.4324057 98.17593277 334.70890038 89.80234057 334.79294097 C85.3894884 334.84375319 81.01850422 334.97122277 76.61897087 335.32852936 C55.20320748 336.99663043 39.67968077 331.22688322 23.23214659 317.52372567 C4.43987936 301.39419825 -9.31162129 284.59943642 -11.8104887 259.24190521 C-12.6605322 247.21491835 -12.32638096 235.18438554 -11.77168677 223.15325159 C-11.42753775 215.48106242 -11.36972627 207.81299111 -11.32095216 200.13419054 C-11.22676329 186.45281077 -10.91927565 172.78551849 -10.4692688 159.11154556 C-10.03404869 145.87313578 -9.71018564 132.63912045 -9.52590942 119.39474869 C-9.5144295 118.57213146 -9.50294958 117.74951423 -9.49112178 116.90196921 C-9.44543036 113.59433073 -9.40059904 110.28668214 -9.3568824 106.97901697 C-9.02370981 81.77984491 -8.58176446 56.58301632 -7.84260941 31.39221954 C-7.76618614 28.7646396 -7.69284007 26.13696817 -7.62271881 23.50921249 C-7.52584387 19.93877476 -7.41610902 16.36899313 -7.30181885 12.79907608 C-7.26144475 11.22272894 -7.26144475 11.22272894 -7.22025502 9.6145364 C-7.18667138 8.66480509 -7.15308773 7.71507378 -7.1184864 6.73656273 C-7.09322636 5.91276812 -7.06796631 5.08897351 -7.04194081 4.24021542 C-6.38137533 -0.08597268 -3.72911443 0.00138696 0 0 Z M1.26168823 8.25168228 C1.26168823 97.02168228 1.26168823 185.79168228 1.26168823 277.25168228 C15.78168823 277.58168228 30.30168823 277.91168228 45.26168823 278.25168228 C55.87876044 288.86875449 46.9205307 308.24075107 47.26168823 323.25168228 C96.43168823 323.25168228 145.60168823 323.25168228 196.26168823 323.25168228 C191.83393457 317.34525725 191.83393457 317.34525725 187.32418823 311.50168228 C173.17943982 292.39516348 168.80024733 270.63393842 171.68746948 247.17746353 C175.3273285 226.16453507 187.21124778 206.15643071 204.68746948 193.74386978 C220.73307896 182.87931069 236.37618302 178.07678732 255.63668823 178.06418228 C256.61379761 178.05193619 257.59090698 178.03969009 258.59762573 178.02707291 C259.56700073 178.02513931 260.53637573 178.02320572 261.53512573 178.02121353 C262.82555786 178.0150502 262.82555786 178.0150502 264.14205933 178.00876236 C268.56532675 178.35319428 272.91118781 179.3815822 277.26168823 180.25168228 C277.26168823 152.20168228 277.26168823 124.15168228 277.26168823 95.25168228 C273.02926302 98.87947532 269.11678537 102.27766819 265.25784302 106.21602249 C264.80382638 106.6776515 264.34980974 107.1392805 263.88203502 107.61489826 C262.38399068 109.1390749 260.88980307 110.66697576 259.39547729 112.19479752 C258.31230786 113.29792709 257.22880763 114.40073192 256.14500427 115.50323868 C254.41805617 117.26010653 252.69134632 119.01720304 250.96563864 120.77528942 C246.68378543 125.13724662 242.39168913 129.48893185 238.09341431 133.83470535 C237.46670184 134.46836075 236.83998938 135.10201614 236.19428563 135.75487322 C233.61143893 138.365927 231.02824454 140.97663651 228.44486475 143.58716285 C221.14294301 150.96661652 213.85121262 158.35551484 206.58932495 165.77438736 C200.80414714 171.68449105 194.99747536 177.57251743 189.16540122 183.4363609 C186.08864639 186.5314689 183.02322277 189.63606841 179.98374176 192.76782417 C167.20235491 205.92412991 156.61632838 216.74640635 138.26168823 221.25168228 C137.60168823 221.91168228 136.94168823 222.57168228 136.26168823 223.25168228 C139.23168823 224.24168228 139.23168823 224.24168228 142.26168823 225.25168228 C142.26168823 226.57168228 142.26168823 227.89168228 142.26168823 229.25168228 C139.34997109 230.70754086 136.80086138 230.37900834 133.54879761 230.38107681 C132.51442314 230.38370529 132.51442314 230.38370529 131.45915222 230.38638687 C129.17455546 230.39079628 126.89003581 230.3878706 124.60543823 230.38449478 C123.02125026 230.38516808 121.43706238 230.38613833 119.85287476 230.38739395 C116.53063983 230.38886969 113.20843176 230.38672034 109.88619995 230.38205338 C105.62213757 230.37635616 101.35813813 230.37963582 97.09407806 230.38562584 C93.82220992 230.38923479 90.55035675 230.38809132 87.27848816 230.38549805 C85.70596815 230.3848297 84.13344678 230.38565398 82.56092834 230.3879776 C80.36544171 230.39050958 78.17005782 230.38665581 75.97457886 230.38107681 C74.72374512 230.38028122 73.47291138 230.37948563 72.18417358 230.37866592 C69.26168823 230.25168228 69.26168823 230.25168228 67.26168823 229.25168228 C67.59168823 227.60168228 67.92168823 225.95168228 68.26168823 224.25168228 C82.12168823 223.92168228 95.98168823 223.59168228 110.26168823 223.25168228 C113.23168823 214.83668228 113.23168823 214.83668228 116.26168823 206.25168228 C117.47187819 203.032342 118.68743105 199.82473987 119.94918823 196.62668228 C120.23084839 195.90351822 120.51250854 195.18035416 120.80270386 194.43527603 C121.61145149 192.36951417 122.43314074 190.30957248 123.26168823 188.25168228 C123.51515015 187.61262955 123.76861206 186.97357681 124.02975464 186.31515884 C125.47210768 182.78940695 126.93012276 180.36043625 129.26168823 177.25168228 C99.06668823 176.75668228 99.06668823 176.75668228 68.26168823 176.25168228 C67.76668823 173.77668228 67.76668823 173.77668228 67.26168823 171.25168228 C67.59168823 170.92168228 67.92168823 170.59168228 68.26168823 170.25168228 C69.99275256 170.58901777 71.71029269 170.99571941 73.42037964 171.42697525 C94.99019434 176.366989 121.44704978 179.68146647 141.16070557 167.45347977 C157.89000092 155.72079622 172.1672962 140.5587464 186.13668823 125.75168228 C186.6267463 125.23331645 187.11680437 124.71495062 187.62171268 124.18087673 C210.67570963 103.75688406 210.67570963 103.75688406 225.26168823 81.25168228 C195.06668823 80.75668228 195.06668823 80.75668228 164.26168823 80.25168228 C163.93168823 78.60168228 163.60168823 76.95168228 163.26168823 75.25168228 C164.26168823 74.25168228 164.26168823 74.25168228 166.91828918 74.21458817 C168.10531937 74.25333557 169.29234955 74.29208298 170.51535034 74.33200455 C171.87217134 74.3714523 173.22902037 74.40994439 174.58589172 74.44762039 C175.31026365 74.4685129 176.03463558 74.4894054 176.78095818 74.51093102 C181.45036339 74.62912538 186.12121602 74.66545004 190.7918005 74.71101856 C194.88111586 74.7554136 198.96459334 74.83142364 203.05148315 74.98190689 C224.65322641 76.29427091 224.65322641 76.29427091 243.16075134 66.75142288 C249.0342121 61.17541526 249.0342121 61.17541526 252.26168823 54.25168228 C223.22168823 53.92168228 194.18168823 53.59168228 164.26168823 53.25168228 C163.93168823 51.60168228 163.60168823 49.95168228 163.26168823 48.25168228 C164.26168823 47.25168228 164.26168823 47.25168228 167.95677185 47.20112991 C169.64646779 47.22949 171.33608164 47.2629835 173.02560425 47.30026627 C174.93497964 47.33304067 176.84436879 47.36502033 178.75376892 47.39632034 C179.77301012 47.41396879 180.79225132 47.43161724 181.84237862 47.44980049 C188.37996957 47.54864169 194.91831925 47.57320146 201.4565134 47.60739422 C207.19472444 47.6415591 212.92975216 47.70414213 218.66671753 47.83102798 C224.21913905 47.95235257 229.76725872 47.99368844 235.3209362 47.98296165 C237.42647335 47.99272552 239.53209298 48.03041689 241.63656807 48.09799385 C253.23411936 48.45270325 261.8350597 47.56209216 270.68331909 39.51755142 C271.35934205 38.94682876 272.03536501 38.37610609 272.73187351 37.7880888 C280.74514322 29.24976609 277.26168823 20.45204082 277.26168823 8.25168228 C186.18168823 8.25168228 95.10168823 8.25168228 1.26168823 8.25168228 Z " fill="#0A0A0A" transform="translate(37.738311767578125,25.74831771850586)"/>
<path d="M0 0 C0.99902344 0.36351562 1.99804688 0.72703125 3.02734375 1.1015625 C23.74089178 9.19891419 38.70139849 23.83380218 48 44 C55.12358763 63.15405737 55.46326145 84.93596038 47.421875 103.92578125 C44.1775932 110.98265223 40.0407388 117.11913807 35 123 C34.55398438 123.58910156 34.10796875 124.17820312 33.6484375 124.78515625 C22.62697276 138.93259198 4.88513521 146.69662477 -12.34375 149.5546875 C-32.56207842 152.01717622 -52.20930452 147.83164577 -69 136 C-84.74664202 123.56331673 -97.53962149 105.36646658 -100 85 C-101.57535331 62.02541027 -98.02564339 41.55046916 -82.6953125 23.46044922 C-62.54247631 0.75292793 -29.49520471 -10.9892715 0 0 Z " fill="#F4F4F4" transform="translate(316,214)"/>
<path d="M0 0 C1.12647009 0.9606224 2.2522481 1.92205639 3.37773132 2.88383484 C4.0047227 3.41914668 4.63171408 3.95445852 5.27770519 4.50599194 C7.0799529 6.0693553 8.78971679 7.68815817 10.45703125 9.39453125 C11.01197266 9.95720703 11.56691406 10.51988281 12.13867188 11.09960938 C12.9672168 11.94749023 12.9672168 11.94749023 13.8125 12.8125 C17.53424928 16.88999317 17.53424928 16.88999317 22 20 C20.40821971 23.92570652 17.70805719 26.56640918 14.7482605 29.49224854 C14.20752274 30.03469515 13.66678498 30.57714176 13.10966122 31.13602614 C11.29641438 32.9525674 9.47611144 34.76186772 7.65576172 36.57128906 C6.3545611 37.87192556 5.05380068 39.17300257 3.75344849 40.4744873 C0.22095427 44.00755599 -3.31767812 47.53441876 -6.85742807 51.06021595 C-10.55523933 54.74553558 -14.24739802 58.43650928 -17.94015503 62.12689209 C-24.93428425 69.11480194 -31.93349669 76.09759734 -38.93454063 83.07857871 C-46.90451653 91.02620987 -54.86882286 98.97951209 -62.83265328 106.9333005 C-79.21545916 123.29519401 -95.60538744 139.6499374 -112 156 C-113.12203297 155.04359074 -114.24331233 154.08629732 -115.36427307 153.12863159 C-115.98876626 152.59563383 -116.61325945 152.06263607 -117.25667667 151.51348686 C-119.23901519 149.79249612 -121.1169148 147.99709481 -122.96484375 146.1328125 C-123.61904297 145.47539062 -124.27324219 144.81796875 -124.94726562 144.140625 C-125.60404297 143.47546875 -126.26082031 142.8103125 -126.9375 142.125 C-127.96327148 141.09246094 -127.96327148 141.09246094 -129.00976562 140.0390625 C-130.67551593 138.36166359 -132.33840361 136.68151054 -134 135 C-128.30716013 128.04491972 -121.92614346 121.79268836 -115.56884766 115.45532227 C-114.30667999 114.19343701 -113.04473314 112.93133084 -111.7829895 111.66902161 C-108.37246548 108.2582117 -104.9588759 104.85048507 -101.54471254 101.44331861 C-97.9714835 97.87635789 -94.40110252 94.30654867 -90.83041382 90.73704529 C-84.07525184 83.98498638 -77.31754568 77.23547978 -70.55891359 70.48689455 C-62.86165665 62.80083058 -55.16725268 55.11191324 -47.47308278 47.42275918 C-31.65188627 31.61200386 -15.82712418 15.80482134 0 0 Z " fill="#F4F4F4" transform="translate(305,76)"/>
<path d="M0 0 C0.99902344 0.36351562 1.99804688 0.72703125 3.02734375 1.1015625 C23.74089178 9.19891419 38.70139849 23.83380218 48 44 C55.12358763 63.15405737 55.46326145 84.93596038 47.421875 103.92578125 C44.1775932 110.98265223 40.0407388 117.11913807 35 123 C34.55398438 123.58910156 34.10796875 124.17820312 33.6484375 124.78515625 C22.62697276 138.93259198 4.88513521 146.69662477 -12.34375 149.5546875 C-32.56207842 152.01717622 -52.20930452 147.83164577 -69 136 C-84.74664202 123.56331673 -97.53962149 105.36646658 -100 85 C-101.57535331 62.02541027 -98.02564339 41.55046916 -82.6953125 23.46044922 C-62.54247631 0.75292793 -29.49520471 -10.9892715 0 0 Z M-39 10 C-40.134375 10.226875 -41.26875 10.45375 -42.4375 10.6875 C-59.15777815 14.84395333 -72.17392627 26.54986998 -81 41 C-82.94425749 44.58313422 -84.55472151 48.18972034 -86 52 C-86.3196875 52.8146875 -86.639375 53.629375 -86.96875 54.46875 C-92.29256147 70.44018441 -89.19370589 88.14384781 -82.4375 103.125 C-73.38832243 120.07788963 -58.52452981 131.0767078 -40.53125 137.17578125 C-23.30829532 141.58602814 -5.80262915 138.44712163 9.71484375 130.109375 C25.89371709 119.72103778 36.40802599 104.61568434 40.875 85.9375 C44.3461334 67.25157826 40.0682079 50.78458968 30 35 C19.67666831 20.90388443 4.27596024 11.57582326 -12.84326172 8.3046875 C-21.20913197 7.12282129 -31.22088408 6.32848236 -39 10 Z " fill="#F0F0F0" transform="translate(316,214)"/>
<path d="M0 0 C19.3976047 7.07181246 31.93499405 19.71390353 40.6484375 38.15234375 C47.57784185 53.60387046 46.51851092 69.47866429 41.41796875 85.24609375 C35.12156939 101.45280216 22.66715145 115.18877806 6.85546875 122.37109375 C-10.44504524 129.48189823 -28.18854772 130.665914 -45.60986328 123.40039062 C-62.31094186 115.74657597 -74.61803767 103.34702472 -81.58203125 86.24609375 C-88.31571527 67.88530317 -86.83239961 50.9573266 -79.30078125 33.23046875 C-71.80206051 17.97144399 -57.43247472 5.98866974 -41.58203125 0.24609375 C-39.18069027 -0.40523868 -36.80705385 -0.95191301 -34.359375 -1.39453125 C-22.71962193 -3.74806374 -11.58097092 -3.58724608 0 0 Z M-45.58203125 10.24609375 C-46.53207031 10.75398437 -47.48210937 11.261875 -48.4609375 11.78515625 C-61.9630835 19.70992066 -72.32421471 32.02834205 -76.58203125 47.24609375 C-79.67232618 64.4520584 -77.65401645 81.59019879 -67.58203125 96.24609375 C-60.57661182 105.42681872 -53.0088412 111.33935966 -42.58203125 116.24609375 C-41.628125 116.69984375 -40.67421875 117.15359375 -39.69140625 117.62109375 C-25.50400847 123.32775654 -10.25794866 121.07102153 3.41796875 115.24609375 C4.19398438 114.93542969 4.97 114.62476563 5.76953125 114.3046875 C18.4718363 108.66203008 28.11515935 97.6819827 33.12597656 84.89257812 C38.10784492 71.39054773 40.17222557 56.70186516 34.671875 42.94140625 C34.05119141 41.60722656 34.05119141 41.60722656 33.41796875 40.24609375 C32.78181641 38.85003906 32.78181641 38.85003906 32.1328125 37.42578125 C24.57148053 22.3031173 12.25191573 12.6523135 -3.58203125 7.24609375 C-17.33016762 3.15764272 -32.84418936 3.3617183 -45.58203125 10.24609375 Z " fill="#0A0A0A" transform="translate(312.58203125,224.75390625)"/>
<path d="M0 0 C0.70909012 -0.00350464 1.41818024 -0.00700928 2.14875793 -0.01062012 C4.49835937 -0.01944014 6.84766099 -0.01358746 9.19726562 -0.00683594 C10.82629454 -0.00818251 12.45532305 -0.01012298 14.08435059 -0.01263428 C17.50077129 -0.0155859 20.91708752 -0.0112867 24.33349609 -0.00195312 C28.71868964 0.00944148 33.10363838 0.00288221 37.48882294 -0.00909805 C40.85335138 -0.01631564 44.21782152 -0.0140292 47.58235168 -0.00884247 C49.1995293 -0.00750569 50.81671217 -0.00915468 52.43388367 -0.01380157 C54.69174272 -0.01886522 56.94920206 -0.0111592 59.20703125 0 C61.13657654 0.00238678 61.13657654 0.00238678 63.10510254 0.00482178 C66.10351562 0.25878906 66.10351562 0.25878906 68.10351562 2.25878906 C68.36230469 5.20800781 68.36230469 5.20800781 68.36914062 8.94628906 C68.37105408 9.60459717 68.37296753 10.26290527 68.37493896 10.94116211 C68.37630012 12.33317446 68.37260846 13.72519953 68.36425781 15.1171875 C68.35355663 17.25061495 68.36415469 19.38320037 68.37695312 21.51660156 C68.37563152 22.86816593 68.3730691 24.21972976 68.36914062 25.57128906 C68.36688477 26.80492187 68.36462891 28.03855469 68.36230469 29.30957031 C68.10351562 32.25878906 68.10351562 32.25878906 66.10351562 34.25878906 C63.10510254 34.51275635 63.10510254 34.51275635 59.20703125 34.51757812 C58.49794113 34.52108276 57.78885101 34.5245874 57.05827332 34.52819824 C54.70867188 34.53701827 52.35937026 34.53116559 50.00976562 34.52441406 C48.38073671 34.52576064 46.7517082 34.52770111 45.12268066 34.5302124 C41.70625996 34.53316403 38.28994373 34.52886483 34.87353516 34.51953125 C30.48834161 34.50813664 26.10339287 34.51469592 21.71820831 34.52667618 C18.35367987 34.53389377 14.98920973 34.53160733 11.62467957 34.52642059 C10.00750195 34.52508381 8.39031908 34.5267328 6.77314758 34.5313797 C4.51528853 34.53644334 2.25782919 34.52873732 0 34.51757812 C-1.92954529 34.51519135 -1.92954529 34.51519135 -3.89807129 34.51275635 C-6.89648438 34.25878906 -6.89648438 34.25878906 -8.89648438 32.25878906 C-9.15527344 29.30957031 -9.15527344 29.30957031 -9.16210938 25.57128906 C-9.16402283 24.91298096 -9.16593628 24.25467285 -9.16790771 23.57641602 C-9.16926887 22.18440366 -9.16557721 20.79237859 -9.15722656 19.40039062 C-9.14652538 17.26696317 -9.15712344 15.13437776 -9.16992188 13.00097656 C-9.16860027 11.6494122 -9.16603785 10.29784836 -9.16210938 8.94628906 C-9.15985352 7.71265625 -9.15759766 6.47902344 -9.15527344 5.20800781 C-8.63229255 -0.75200078 -5.10051514 0.00630916 0 0 Z " fill="#030303" transform="translate(112.896484375,302.7412109375)"/>
<path d="M0 0 C20.13 0 40.26 0 61 0 C61 6.6 61 13.2 61 20 C40.87 20 20.74 20 0 20 C0 13.4 0 6.8 0 0 Z " fill="#ECECEC" transform="translate(112,310)"/>
<path d="M0 0 C1.02075623 -0.00287018 1.02075623 -0.00287018 2.06213379 -0.00579834 C3.50122446 -0.00715963 4.94032744 -0.00346705 6.37939453 0.00488281 C8.58524087 0.01558372 10.79027281 0.00498628 12.99609375 -0.0078125 C14.39323097 -0.00649089 15.79036768 -0.00392848 17.1875 0 C18.46302734 0.00225586 19.73855469 0.00451172 21.05273438 0.00683594 C24.09375 0.265625 24.09375 0.265625 26.09375 2.265625 C26.4928139 6.68406049 26.42278357 11.11682339 26.40942383 15.55126953 C26.40626188 17.75733734 26.42972576 19.96206669 26.45507812 22.16796875 C26.45735088 23.56510247 26.45805472 24.96223981 26.45703125 26.359375 C26.46001221 27.63490234 26.46299316 28.91042969 26.46606445 30.22460938 C26.34320068 31.22814453 26.22033691 32.23167969 26.09375 33.265625 C21.34466772 36.43167986 16.22889404 35.59947715 10.64208984 35.58129883 C8.60069546 35.57813576 6.56074681 35.60161627 4.51953125 35.62695312 C2.59173828 35.62791992 2.59173828 35.62791992 0.625 35.62890625 C-0.55513672 35.63188721 -1.73527344 35.63486816 -2.95117188 35.63793945 C-5.90625 35.265625 -5.90625 35.265625 -7.79174805 34.16699219 C-9.4864836 31.2757325 -9.27760876 28.8090567 -9.26953125 25.48046875 C-9.27002975 24.82357559 -9.27052826 24.16668243 -9.27104187 23.48988342 C-9.26870488 22.10382048 -9.25899825 20.71775301 -9.24243164 19.33178711 C-9.21879461 17.20713516 -9.22187808 15.08373478 -9.22851562 12.95898438 C-9.17494294 0.01622653 -9.17494294 0.01622653 0 0 Z " fill="#0D0D0D" transform="translate(58.90625,248.734375)"/>
<path d="M0 0 C3.04101562 -0.37231445 3.04101562 -0.37231445 6.90625 -0.36328125 C7.58675415 -0.36377975 8.2672583 -0.36427826 8.96838379 -0.36479187 C10.4075004 -0.36245082 11.84662105 -0.35272029 13.28564453 -0.33618164 C15.49158237 -0.31259002 17.69631186 -0.31561947 19.90234375 -0.32226562 C30.7209175 -0.2790825 30.7209175 -0.2790825 33 2 C33.25878906 5.04101562 33.25878906 5.04101562 33.265625 8.90625 C33.26849518 9.92700623 33.26849518 9.92700623 33.27142334 10.96838379 C33.27278463 12.40747446 33.26909205 13.84657744 33.26074219 15.28564453 C33.25004128 17.49149087 33.26063872 19.69652281 33.2734375 21.90234375 C33.27211589 23.29948097 33.26955348 24.69661768 33.265625 26.09375 C33.26336914 27.36927734 33.26111328 28.64480469 33.25878906 29.95898438 C33 33 33 33 31 35 C26.74257862 35.39863496 22.47052426 35.32902541 18.1965332 35.31567383 C16.07385794 35.31251689 13.95258064 35.33595761 11.83007812 35.36132812 C10.48177259 35.36360146 9.13346331 35.36430446 7.78515625 35.36328125 C6.55676025 35.36626221 5.32836426 35.36924316 4.06274414 35.37231445 C1 35 1 35 -0.90136719 33.88549805 C-2.54500632 31.06464804 -2.37148055 28.71478448 -2.36328125 25.46875 C-2.36263672 24.18355469 -2.36199219 22.89835937 -2.36132812 21.57421875 C-2.35302979 20.90567871 -2.34473145 20.23713867 -2.33618164 19.54833984 C-2.31258192 17.50708548 -2.31562347 15.46713745 -2.32226562 13.42578125 C-2.26696034 3.4004405 -2.26696034 3.4004405 0 0 Z " fill="#0B0B0B" transform="translate(52,195)"/>
<path d="M0 0 C1.28519531 0.00064453 2.57039063 0.00128906 3.89453125 0.00195312 C4.56307129 0.01025146 5.23161133 0.0185498 5.92041016 0.02709961 C7.96166452 0.05069933 10.00161255 0.04765778 12.04296875 0.04101562 C22.0683095 0.09632091 22.0683095 0.09632091 25.46875 2.36328125 C25.84106445 5.40429687 25.84106445 5.40429687 25.83203125 9.26953125 C25.83277901 10.29028748 25.83277901 10.29028748 25.83354187 11.33166504 C25.83120082 12.77078165 25.82147029 14.2099023 25.80493164 15.64892578 C25.78134002 17.85486362 25.78436947 20.05959311 25.79101562 22.265625 C25.7478325 33.08419875 25.7478325 33.08419875 23.46875 35.36328125 C19.05031451 35.76234515 14.61755161 35.69231482 10.18310547 35.67895508 C7.97703766 35.67579313 5.77230831 35.69925701 3.56640625 35.72460938 C2.16927253 35.72688213 0.77213519 35.72758597 -0.625 35.7265625 C-1.90052734 35.72954346 -3.17605469 35.73252441 -4.49023438 35.7355957 C-5.49376953 35.61273193 -6.49730469 35.48986816 -7.53125 35.36328125 C-10.69730486 30.61419897 -9.86510215 25.49842529 -9.84692383 19.91162109 C-9.84376076 17.87022671 -9.86724127 15.83027806 -9.89257812 13.7890625 C-9.89322266 12.50386719 -9.89386719 11.21867188 -9.89453125 9.89453125 C-9.89751221 8.71439453 -9.90049316 7.53425781 -9.90356445 6.31835938 C-9.53125 3.36328125 -9.53125 3.36328125 -8.41674805 1.4777832 C-5.59797749 -0.18836824 -3.25493512 -0.00822178 0 0 Z " fill="#0B0B0B" transform="translate(59.53125,140.63671875)"/>
<path d="M0 0 C1.02075623 -0.00287018 1.02075623 -0.00287018 2.06213379 -0.00579834 C3.50122446 -0.00715963 4.94032744 -0.00346705 6.37939453 0.00488281 C8.58524087 0.01558372 10.79027281 0.00498628 12.99609375 -0.0078125 C14.39323097 -0.00649089 15.79036768 -0.00392848 17.1875 0 C18.46302734 0.00225586 19.73855469 0.00451172 21.05273438 0.00683594 C24.09375 0.265625 24.09375 0.265625 26.09375 2.265625 C26.35253906 5.21484375 26.35253906 5.21484375 26.359375 8.953125 C26.36224518 9.94058716 26.36224518 9.94058716 26.36517334 10.94799805 C26.3665345 12.3400104 26.36284283 13.73203547 26.35449219 15.12402344 C26.343791 17.25745089 26.35438906 19.39003631 26.3671875 21.5234375 C26.36586589 22.87500186 26.36330347 24.2265657 26.359375 25.578125 C26.35711914 26.81175781 26.35486328 28.04539062 26.35253906 29.31640625 C26.09375 32.265625 26.09375 32.265625 24.09375 34.265625 C21.05273438 34.52441406 21.05273438 34.52441406 17.1875 34.53125 C16.16674377 34.53412018 16.16674377 34.53412018 15.12536621 34.53704834 C13.68627554 34.53840963 12.24717256 34.53471705 10.80810547 34.52636719 C8.60225913 34.51566628 6.39722719 34.52626372 4.19140625 34.5390625 C2.79426903 34.53774089 1.39713232 34.53517848 0 34.53125 C-1.27552734 34.52899414 -2.55105469 34.52673828 -3.86523438 34.52441406 C-6.90625 34.265625 -6.90625 34.265625 -8.90625 32.265625 C-9.16503906 29.31640625 -9.16503906 29.31640625 -9.171875 25.578125 C-9.17378845 24.91981689 -9.1757019 24.26150879 -9.17767334 23.58325195 C-9.1790345 22.1912396 -9.17534283 20.79921453 -9.16699219 19.40722656 C-9.156291 17.27379911 -9.16688906 15.14121369 -9.1796875 13.0078125 C-9.17836589 11.65624814 -9.17580347 10.3046843 -9.171875 8.953125 C-9.16961914 7.71949219 -9.16736328 6.48585938 -9.16503906 5.21484375 C-8.64206247 -0.74511589 -5.10020541 0.00902007 0 0 Z " fill="#070707" transform="translate(58.90625,87.734375)"/>
<path d="M0 0 C7.31870346 2.28490622 11.88324982 5.81700024 16.265625 12.01953125 C18.0833508 15.48973505 18.65204327 18.1213174 18.265625 22.01953125 C16.796875 24.0559082 16.796875 24.0559082 14.765625 26.0078125 C14.04375 26.71357422 13.321875 27.41933594 12.578125 28.14648438 C11.815 28.86771484 11.051875 29.58894531 10.265625 30.33203125 C9.5025 31.07259766 8.739375 31.81316406 7.953125 32.57617188 C6.06802468 34.40236281 4.17226931 36.21588884 2.265625 38.01953125 C-1.20067335 36.53299619 -3.42459536 34.56230774 -6.0625 31.88671875 C-6.86171875 31.08105469 -7.6609375 30.27539062 -8.484375 29.4453125 C-9.721875 28.18267578 -9.721875 28.18267578 -10.984375 26.89453125 C-11.82484375 26.04503906 -12.6653125 25.19554688 -13.53125 24.3203125 C-15.60353183 22.22448202 -17.67099893 20.12412412 -19.734375 18.01953125 C-17.64501066 13.43298378 -14.52292841 10.29159829 -11.046875 6.70703125 C-10.44681641 6.04896484 -9.84675781 5.39089844 -9.22851562 4.71289062 C-4.66741387 0.02441116 -4.66741387 0.02441116 0 0 Z " fill="#F3F3F3" transform="translate(350.734375,33.98046875)"/>
<path d="M0 0 C1.42698463 -0.00503792 1.42698463 -0.00503792 2.88279724 -0.01017761 C6.03914685 -0.01970535 9.19544353 -0.0216316 12.35180664 -0.02270508 C14.53894574 -0.02591626 16.72608463 -0.02928023 18.91322327 -0.03279114 C23.50237527 -0.03878688 28.09150842 -0.04063057 32.68066406 -0.04003906 C38.57011007 -0.03993739 44.45943566 -0.0535934 50.34885311 -0.07081127 C54.86719827 -0.0819124 59.38551414 -0.08395886 63.90387154 -0.08342934 C66.07565285 -0.08461216 68.24743486 -0.08905076 70.4192028 -0.0967617 C73.45273222 -0.10652403 76.48599788 -0.10369847 79.51953125 -0.09765625 C80.87319794 -0.10608551 80.87319794 -0.10608551 82.25421143 -0.11468506 C83.49294258 -0.10839333 83.49294258 -0.10839333 84.75669861 -0.10197449 C85.47402129 -0.10251925 86.19134398 -0.10306402 86.93040371 -0.1036253 C88.82446289 0.14526367 88.82446289 0.14526367 91.82446289 2.14526367 C90.94946289 7.02026367 90.94946289 7.02026367 89.82446289 8.14526367 C86.73012051 8.25126769 83.65797458 8.29203822 80.56298828 8.29052734 C79.10455254 8.29556526 79.10455254 8.29556526 77.61665344 8.30070496 C74.38512921 8.31024629 71.15365661 8.31215965 67.92211914 8.31323242 C65.68631468 8.31644274 63.45051043 8.31980663 61.21470642 8.32331848 C56.5212251 8.32931769 51.82776223 8.33115757 47.13427734 8.33056641 C41.10682181 8.33046473 35.07948393 8.34411943 29.05205631 8.36133862 C24.43252515 8.3724325 19.81302266 8.37448642 15.19347954 8.37395668 C12.97063224 8.37514065 10.74778429 8.3795856 8.52495003 8.38728905 C5.42165912 8.39703659 2.31862669 8.39423171 -0.78466797 8.38818359 C-2.17413635 8.39661285 -2.17413635 8.39661285 -3.5916748 8.4052124 C-4.43439438 8.40101791 -5.27711395 8.39682343 -6.14537048 8.39250183 C-6.87966247 8.3930466 -7.61395445 8.39359137 -8.3704977 8.39415264 C-10.17553711 8.14526367 -10.17553711 8.14526367 -12.17553711 6.14526367 C-11.92553711 3.58276367 -11.92553711 3.58276367 -11.17553711 1.14526367 C-7.73827654 -0.57336661 -3.78286819 -0.00189541 0 0 Z " fill="#0D0D0D" transform="translate(212.175537109375,44.854736328125)"/>
<path d="M0 0 C0.91539047 0.00404846 1.83078094 0.00809692 2.77391052 0.01226807 C4.21793495 0.00701111 4.21793495 0.00701111 5.69113159 0.00164795 C8.88481277 -0.00718065 12.07827383 -0.0013162 15.2719574 0.00543213 C17.48391258 0.0040858 19.69586748 0.00214555 21.90782166 -0.00036621 C26.54827181 -0.00331901 31.18864507 0.00098518 35.8290863 0.01031494 C41.78814565 0.02170952 47.74702485 0.01515088 53.70607758 0.00317001 C58.27500271 -0.00404438 62.84388488 -0.00176259 67.41281128 0.0034256 C69.61053488 0.00476326 71.80826234 0.00311033 74.00598145 -0.00153351 C77.07326139 -0.00659181 80.14024639 0.00110174 83.20750427 0.01226807 C84.12289474 0.0082196 85.03828522 0.00417114 85.98141479 0 C92.26217998 0.04252971 92.26217998 0.04252971 94.4907074 2.27105713 C93.93515184 6.82661268 93.93515184 6.82661268 92.4907074 8.27105713 C89.39636502 8.37706115 86.32421909 8.41783168 83.22923279 8.4163208 C81.77079704 8.42135872 81.77079704 8.42135872 80.28289795 8.42649841 C77.05137371 8.43603975 73.81990111 8.4379531 70.58836365 8.43902588 C68.35255918 8.4422362 66.11675494 8.44560009 63.88095093 8.44911194 C59.18746961 8.45511115 54.49400673 8.45695102 49.80052185 8.45635986 C43.77306632 8.45625818 37.74572844 8.46991288 31.71830082 8.48713207 C27.09876966 8.49822596 22.47926717 8.50027988 17.85972404 8.49975014 C15.63687675 8.50093411 13.4140288 8.50537905 11.19119453 8.5130825 C8.08790363 8.52283005 4.9848712 8.52002517 1.88157654 8.51397705 C0.49210815 8.52240631 0.49210815 8.52240631 -0.9254303 8.53100586 C-1.76814987 8.52681137 -2.61086945 8.52261688 -3.47912598 8.51829529 C-4.21341796 8.51884006 -4.94770994 8.51938482 -5.7042532 8.5199461 C-7.5092926 8.27105713 -7.5092926 8.27105713 -9.5092926 6.27105713 C-8.74811164 0.1816094 -5.58456534 0.03781545 0 0 Z " fill="#0D0D0D" transform="translate(59.50929260253906,44.72894287109375)"/>
<path d="M0 0 C0.68797668 -0.00335861 1.37595337 -0.00671722 2.08477783 -0.01017761 C4.36456089 -0.01969555 6.64427057 -0.02163112 8.92407227 -0.02270508 C10.50586477 -0.02591699 12.08765698 -0.02928101 13.66944885 -0.03279114 C16.98748463 -0.03878445 20.30549435 -0.04063082 23.62353516 -0.04003906 C27.87857797 -0.03993741 32.13345403 -0.05359201 36.3884573 -0.07081127 C39.65607981 -0.08192076 42.92366188 -0.0839586 46.19130135 -0.08342934 C47.76020953 -0.08461095 49.32911871 -0.08904286 50.89800835 -0.0967617 C53.09097912 -0.10654086 55.28358608 -0.10369199 57.4765625 -0.09765625 C59.34948219 -0.09979378 59.34948219 -0.09979378 61.26023865 -0.10197449 C64.30297852 0.14526367 64.30297852 0.14526367 67.30297852 2.14526367 C66.42797852 7.02026367 66.42797852 7.02026367 65.30297852 8.14526367 C63.04391034 8.25021489 60.7815144 8.28383755 58.52001953 8.29052734 C57.81107544 8.29388596 57.10213135 8.29724457 56.3717041 8.30070496 C54.01674674 8.31024183 51.66186026 8.31215943 49.30688477 8.31323242 C47.6764269 8.31644312 46.04596933 8.31980705 44.41551208 8.32331848 C40.99314709 8.32931662 37.57080738 8.33115768 34.1484375 8.33056641 C29.75538619 8.33046475 25.36249638 8.3441176 20.96948338 8.36133862 C17.60067495 8.37243791 14.23190582 8.37448625 10.86308098 8.37395668 C9.2431069 8.37513991 7.62313191 8.37958074 6.00317574 8.38728905 C3.74044497 8.39704734 1.47806806 8.3942276 -0.78466797 8.38818359 C-2.0740477 8.38960861 -3.36342743 8.39103363 -4.69187927 8.39250183 C-7.69702148 8.14526367 -7.69702148 8.14526367 -9.69702148 6.14526367 C-9.44702148 3.58276367 -9.44702148 3.58276367 -8.69702148 1.14526367 C-5.79069814 -0.307898 -3.24641406 0.00991705 0 0 Z " fill="#0D0D0D" transform="translate(113.697021484375,140.854736328125)"/>
<path d="M0 0 C3.46629835 1.48653506 5.69022036 3.45722351 8.328125 6.1328125 C9.12734375 6.93847656 9.9265625 7.74414062 10.75 8.57421875 C11.575 9.41597656 12.4 10.25773437 13.25 11.125 C14.09046875 11.97449219 14.9309375 12.82398437 15.796875 13.69921875 C17.86915683 15.79504923 19.93662393 17.89540713 22 20 C20.16307611 24.00374431 17.50882084 26.71957934 14.375 29.75 C13.859375 30.25660156 13.34375 30.76320313 12.8125 31.28515625 C11.54616661 32.52803902 10.2736856 33.76465276 9 35 C3.74825074 30.61557474 -1.13222473 25.99157907 -5.9375 21.125 C-6.96327148 20.09246094 -6.96327148 20.09246094 -8.00976562 19.0390625 C-9.67551464 17.36166489 -11.3388622 15.68196209 -13 14 C-9.81968878 10.2341894 -6.64858175 6.51561011 -3.125 3.0625 C-2.23167969 2.18271484 -2.23167969 2.18271484 -1.3203125 1.28515625 C-0.66675781 0.64900391 -0.66675781 0.64900391 0 0 Z " fill="#EFEFEF" transform="translate(324,57)"/>
<path d="M0 0 C10.56 0 21.12 0 32 0 C32 10.89 32 21.78 32 33 C27.44671276 29.09718237 23.07645863 25.23521303 18.84765625 21.015625 C18.30265976 20.47395691 17.75766327 19.93228882 17.19615173 19.37420654 C16.05972814 18.24279687 14.92460982 17.11007469 13.79077148 15.97607422 C12.0475384 14.23505742 10.2964178 12.50223063 8.54492188 10.76953125 C7.43701255 9.66455103 6.32957302 8.55909952 5.22265625 7.453125 C4.4353286 6.67657562 4.4353286 6.67657562 3.63209534 5.88433838 C0 2.22886152 0 2.22886152 0 0 Z " fill="#EAEAEA" transform="translate(45,310)"/>
<path d="M0 0 C2.00720923 0.28674418 4.0085944 0.61866701 6 1 C5.91508301 1.97533691 5.83016602 2.95067383 5.74267578 3.95556641 C3.64022398 24.22694619 3.64022398 24.22694619 10.56350708 42.49481201 C15.46189121 48.0137282 21.14125897 52.6636052 27.10986328 56.98413086 C27.7336084 57.64936768 28.35735352 58.31460449 29 59 C28.79248047 61.75219727 28.79248047 61.75219727 28 64 C25.85864258 64.73413086 25.85864258 64.73413086 23 65 C18.36999885 62.56893322 14.52234752 59.08438717 10.6875 55.5625 C10.13208527 55.05588837 9.57667053 54.54927673 9.00442505 54.02731323 C0.77961256 46.18933403 -2.30036096 39.14888079 -2.70744324 27.79637146 C-2.76576662 18.85529285 -2.28529521 9.85108231 -1 1 C-0.67 0.67 -0.34 0.34 0 0 Z " fill="#070707" transform="translate(290,249)"/>
<path d="M0 0 C0.70894409 -0.00335861 1.41788818 -0.00671722 2.14831543 -0.01017761 C4.50327279 -0.01971449 6.85815927 -0.02163209 9.21313477 -0.02270508 C10.84359263 -0.02591578 12.4740502 -0.0292797 14.10450745 -0.03279114 C17.52687244 -0.03878927 20.94921215 -0.04063034 24.37158203 -0.04003906 C28.76463334 -0.0399374 33.15752315 -0.05359026 37.55053616 -0.07081127 C40.91934458 -0.08191056 44.28811371 -0.08395891 47.65693855 -0.08342934 C49.27691263 -0.08461256 50.89688762 -0.0890534 52.5168438 -0.0967617 C54.77957456 -0.10652 57.04195147 -0.10370026 59.3046875 -0.09765625 C60.59406723 -0.09908127 61.88344696 -0.10050629 63.2118988 -0.10197449 C66.21704102 0.14526367 66.21704102 0.14526367 68.21704102 2.14526367 C67.68132673 5.68097796 67.68132673 5.68097796 66.21704102 7.14526367 C63.95797284 7.25021489 61.6955769 7.28383755 59.43408203 7.29052734 C58.72513794 7.29388596 58.01619385 7.29724457 57.2857666 7.30070496 C54.93080924 7.31024183 52.57592276 7.31215943 50.22094727 7.31323242 C48.5904894 7.31644312 46.96003183 7.31980705 45.32957458 7.32331848 C41.90720959 7.32931662 38.48486988 7.33115768 35.0625 7.33056641 C30.66944869 7.33046475 26.27655888 7.3441176 21.88354588 7.36133862 C18.51473745 7.37243791 15.14596832 7.37448625 11.77714348 7.37395668 C10.1571694 7.37513991 8.53719441 7.37958074 6.91723824 7.38728905 C4.65450747 7.39704734 2.39213056 7.3942276 0.12939453 7.38818359 C-1.1599852 7.38960861 -2.44936493 7.39103363 -3.77781677 7.39250183 C-6.78295898 7.14526367 -6.78295898 7.14526367 -8.78295898 5.14526367 C-7.88968843 -0.75032197 -5.55517932 0.01643294 0 0 Z " fill="#020202" transform="translate(112.782958984375,87.854736328125)"/>
<path d="M0 0 C6.27 0 12.54 0 19 0 C19 6.6 19 13.2 19 20 C12.73 20 6.46 20 0 20 C0 13.4 0 6.8 0 0 Z " fill="#E8E8E8" transform="translate(58,95)"/>
<path d="M0 0 C6.27 0 12.54 0 19 0 C19 6.27 19 12.54 19 19 C12.73 19 6.46 19 0 19 C0 12.73 0 6.46 0 0 Z " fill="#F0F0F0" transform="translate(58,257)"/>
<path d="M0 0 C6.27 0 12.54 0 19 0 C19 6.27 19 12.54 19 19 C12.73 19 6.46 19 0 19 C0 12.73 0 6.46 0 0 Z " fill="#F1F1F1" transform="translate(58,203)"/>
<path d="M0 0 C6.27 0 12.54 0 19 0 C19 6.27 19 12.54 19 19 C12.73 19 6.46 19 0 19 C0 12.73 0 6.46 0 0 Z " fill="#F1F1F1" transform="translate(58,149)"/>
<path d="M0 0 C6.41069287 5.27101414 12.18590512 11.09128152 18 17 C15.39531886 19.60468114 12.43002342 20.61435204 9.0625 21.9375 C8.06174438 22.33509521 8.06174438 22.33509521 7.04077148 22.74072266 C1.46394757 24.91167433 -4.17465971 26.61935802 -10 28 C-9.236513 22.90660039 -7.35720743 18.23678892 -5.5625 13.4375 C-5.09360352 12.16229492 -5.09360352 12.16229492 -4.61523438 10.86132812 C-3.23283804 7.1349955 -1.8298433 3.53330102 0 0 Z " fill="#EEEEEE" transform="translate(167,218)"/>
<path d="M0 0 C0.92607559 -0.0033284 1.85215118 -0.0066568 2.80628967 -0.01008606 C4.76921083 -0.01515933 6.73214065 -0.01749426 8.69506836 -0.01733398 C11.70636136 -0.01951942 14.71728759 -0.03766799 17.72851562 -0.05664062 C19.63150916 -0.05957461 21.53450444 -0.06155937 23.4375 -0.0625 C24.79535866 -0.07327827 24.79535866 -0.07327827 26.1806488 -0.08427429 C27.01814163 -0.08119766 27.85563446 -0.07812103 28.71850586 -0.07495117 C29.45717392 -0.07637619 30.19584198 -0.07780121 30.95689392 -0.07926941 C32.78515625 0.16796875 32.78515625 0.16796875 34.78515625 2.16796875 C34.22960069 6.72352431 34.22960069 6.72352431 32.78515625 8.16796875 C29.70603966 8.28157168 26.65020159 8.3321598 23.5703125 8.3359375 C22.64423691 8.3392659 21.71816132 8.3425943 20.76402283 8.34602356 C18.80110167 8.35109683 16.83817185 8.35343176 14.87524414 8.35327148 C11.86395114 8.35545692 8.85302491 8.37360549 5.84179688 8.39257812 C3.93880334 8.39551211 2.03580806 8.39749687 0.1328125 8.3984375 C-1.22504616 8.40921577 -1.22504616 8.40921577 -2.6103363 8.42021179 C-3.44782913 8.41713516 -4.28532196 8.41405853 -5.14819336 8.41088867 C-6.25619545 8.4130262 -6.25619545 8.4130262 -7.38658142 8.41520691 C-9.21484375 8.16796875 -9.21484375 8.16796875 -11.21484375 6.16796875 C-10.29446844 -1.3791088 -6.68263551 0.00819673 0 0 Z " fill="#0C0C0C" transform="translate(115.21484375,221.83203125)"/>
<path d="M0 0 C0.92607559 -0.0033284 1.85215118 -0.0066568 2.80628967 -0.01008606 C4.76921083 -0.01515933 6.73214065 -0.01749426 8.69506836 -0.01733398 C11.70636136 -0.01951942 14.71728759 -0.03766799 17.72851562 -0.05664062 C19.63150916 -0.05957461 21.53450444 -0.06155937 23.4375 -0.0625 C24.79535866 -0.07327827 24.79535866 -0.07327827 26.1806488 -0.08427429 C27.01814163 -0.08119766 27.85563446 -0.07812103 28.71850586 -0.07495117 C29.45717392 -0.07637619 30.19584198 -0.07780121 30.95689392 -0.07926941 C32.78515625 0.16796875 32.78515625 0.16796875 34.78515625 2.16796875 C34.22960069 6.72352431 34.22960069 6.72352431 32.78515625 8.16796875 C29.70603966 8.28157168 26.65020159 8.3321598 23.5703125 8.3359375 C22.64423691 8.3392659 21.71816132 8.3425943 20.76402283 8.34602356 C18.80110167 8.35109683 16.83817185 8.35343176 14.87524414 8.35327148 C11.86395114 8.35545692 8.85302491 8.37360549 5.84179688 8.39257812 C3.93880334 8.39551211 2.03580806 8.39749687 0.1328125 8.3984375 C-1.22504616 8.40921577 -1.22504616 8.40921577 -2.6103363 8.42021179 C-3.44782913 8.41713516 -4.28532196 8.41405853 -5.14819336 8.41088867 C-6.25619545 8.4130262 -6.25619545 8.4130262 -7.38658142 8.41520691 C-9.21484375 8.16796875 -9.21484375 8.16796875 -11.21484375 6.16796875 C-10.29446844 -1.3791088 -6.68263551 0.00819673 0 0 Z " fill="#0C0C0C" transform="translate(115.21484375,167.83203125)"/>
<path d="M0 0 C0.85758911 -0.00315216 1.71517822 -0.00630432 2.59875488 -0.009552 C3.53102905 -0.00752777 4.46330322 -0.00550354 5.42382812 -0.00341797 C6.84979309 -0.00485306 6.84979309 -0.00485306 8.30456543 -0.00631714 C10.31876695 -0.00699904 12.33297065 -0.00514409 14.34716797 -0.00097656 C17.44178167 0.00437155 20.53625022 -0.00092124 23.63085938 -0.00732422 C25.58268261 -0.00666344 27.53450576 -0.00538228 29.48632812 -0.00341797 C30.88473938 -0.00645432 30.88473938 -0.00645432 32.31140137 -0.009552 C33.16899048 -0.00639984 34.02657959 -0.00324768 34.91015625 0 C35.66880981 0.00079559 36.42746338 0.00159119 37.20910645 0.00241089 C38.95507812 0.12939453 38.95507812 0.12939453 39.95507812 1.12939453 C40.14257812 3.56689453 40.14257812 3.56689453 39.95507812 6.12939453 C37.27365904 8.81081362 35.20051828 8.39008345 31.55433655 8.43293762 C30.67724533 8.43202621 29.80015411 8.43111481 28.89648438 8.43017578 C27.99639145 8.43446091 27.09629852 8.43874603 26.16893005 8.44316101 C24.26326337 8.44890983 22.35757473 8.44940052 20.4519043 8.44506836 C17.53266002 8.44191084 14.61443118 8.46535187 11.6953125 8.49072266 C9.84570441 8.4929958 7.99609358 8.49369908 6.14648438 8.49267578 C5.27141739 8.50188553 4.3963504 8.51109528 3.49476624 8.52058411 C2.68059738 8.51435532 1.86642853 8.50812653 1.02758789 8.50170898 C0.31192154 8.50233841 -0.40374481 8.50296783 -1.14109802 8.50361633 C-3.61118326 8.01808835 -4.53316992 7.10788225 -6.04492188 5.12939453 C-5.5070984 0.55789503 -4.35716349 0.00456932 0 0 Z " fill="#101010" transform="translate(110.044921875,275.87060546875)"/>
<path d="M0 0 C0.88022827 0.00404846 1.76045654 0.00809692 2.6673584 0.01226807 C4.0210553 0.00939789 4.0210553 0.00939789 5.40209961 0.00646973 C7.31197386 0.00510748 9.22185736 0.00880669 11.13171387 0.01715088 C14.0617749 0.02784986 16.99122278 0.01725696 19.92126465 0.00445557 C21.77413059 0.00577715 23.62699615 0.00833953 25.4798584 0.01226807 C26.80020081 0.00619537 26.80020081 0.00619537 28.1472168 0 C34.3436918 0.04797647 34.3436918 0.04797647 36.5736084 2.27789307 C36.01805284 6.83344862 36.01805284 6.83344862 34.5736084 8.27789307 C31.4944918 8.39149599 28.43865374 8.44208411 25.35876465 8.44586182 C24.43268906 8.44919022 23.50661346 8.45251862 22.55247498 8.45594788 C20.58955382 8.46102115 18.626624 8.46335608 16.66369629 8.4631958 C13.65240329 8.46538124 10.64147706 8.48352981 7.63024902 8.50250244 C5.72725549 8.50543642 3.82426021 8.50742119 1.92126465 8.50836182 C0.56340599 8.51914009 0.56340599 8.51914009 -0.82188416 8.53013611 C-1.65937698 8.52705948 -2.49686981 8.52398285 -3.35974121 8.52081299 C-4.4677433 8.52295052 -4.4677433 8.52295052 -5.59812927 8.52513123 C-7.4263916 8.27789307 -7.4263916 8.27789307 -9.4263916 6.27789307 C-8.6706787 0.23218982 -5.56049928 0.0430524 0 0 Z " fill="#101010" transform="translate(113.4263916015625,113.72210693359375)"/>
</svg>
